<svg xmlns="http://www.w3.org/2000/svg" xmlns:xlink="http://www.w3.org/1999/xlink"><polygon points="0,200 0,100 1,101 2,100 3,99 4,98 5,99 6,100 7,101 8,100 9,101 10,100 11,101 12,100 13,101 14,102 15,101 16,100 17,99 18,98 19,99 20,98 21,99 22,98 23,99 24,100 25,101 26,100 27,101 28,100 29,99 30,100 31,101 32,102 33,101 34,102 35,103 36,102 37,103 38,102 39,103 40,104 41,105 42,104 43,105 44,106 45,105 46,104 47,103 48,102 49,103 50,102 51,103 52,102 53,103 54,102 55,103 56,102 57,103 58,104 59,105 60,104 61,105 62,106 63,107 64,106 65,107 66,106 67,107 68,108 69,109 70,110 71,111 72,112 73,113 74,112 75,111 76,112 77,111 78,110 79,109 80,108 81,107 82,106 83,105 84,104 85,103 86,102 87,103 88,104 89,103 90,104 91,103 92,104 93,105 94,106 95,105 96,104 97,103 98,104 99,103 100,104 101,103 102,104 103,103 104,104 105,103 106,104 107,105 108,106 109,107 110,108 111,109 112,108 113,107 114,106 115,107 116,106 117,107 118,108 119,107 120,106 121,105 122,106 123,107 124,108 125,109 126,110 127,109 128,110 129,109 130,108 131,109 132,108 133,107 134,108 135,107 136,108 137,107 138,106 139,105 140,106 141,107 142,108 143,107 144,108 145,107 146,106 147,105 148,106 149,107 150,106 151,107 152,108 153,109 154,110 155,111 156,110 157,111 158,112 159,113 160,114 161,113 162,112 163,113 164,112 165,113 166,114 167,115 168,116 169,117 170,118 171,119 172,120 173,121 174,120 175,119 176,118 177,117 178,118 179,117 180,118 181,119 182,120 183,119 184,120 185,119 186,120 187,119 188,118 189,119 190,118 191,117 192,118 193,117 194,116 195,115 196,114 197,115 198,116 199,115 200,114 201,115 202,116 203,117 204,118 205,119 206,118 207,117 208,118 209,117 210,116 211,117 212,116 213,115 214,114 215,115 216,114 217,113 218,112 219,111 220,112 221,113 222,114 223,115 224,114 225,115 226,114 227,113 228,112 229,111 230,112 231,111 232,112 233,111 234,110 235,111 236,110 237,109 238,108 239,109 240,110 241,111 242,110 243,111 244,110 245,109 246,108 247,109 248,108 249,107 250,108 251,107 252,108 253,107 254,106 255,107 256,108 257,107 258,106 259,105 260,104 261,103 262,102 263,103 264,102 265,101 266,100 267,101 268,102 269,103 270,102 271,103 272,104 273,103 274,104 275,103 276,104 277,103 278,102 279,101 280,102 281,101 282,100 283,99 284,100 285,101 286,102 287,103 288,104 289,105 290,106 291,107 292,108 293,107 294,108 295,109 296,108 297,107 298,108 299,107 300,106 301,105 302,106 303,107 304,108 305,109 306,110 307,109 308,110 309,109 310,108 311,107 312,108 313,107 314,108 315,109 316,108 317,107 318,108 319,109 320,110 321,109 322,108 323,109 324,108 325,107 326,106 327,105 328,106 329,105 330,106 331,105 332,104 333,105 334,106 335,107 336,108 337,107 338,108 339,109 340,110 341,109 342,108 343,109 344,108 345,107 346,108 347,107 348,106 349,105 350,106 351,107 352,106 353,107 354,108 355,107 356,108 357,109 358,110 359,109 360,110 361,111 362,110 363,111 364,110 365,111 366,110 367,109 368,110 369,109 370,110 371,109 372,110 373,111 374,110 375,111 376,112 377,113 378,112 379,113 380,114 381,115 382,116 383,115 384,114 385,115 386,116 387,117 388,116 389,115 390,116 391,117 392,116 393,115 394,116 395,117 396,116 397,117 398,116 399,115 400,200 " style="fill:rgb(150,3,52);stroke:rgb(50,0,0)"></polygon><polygon points="0,200 0,100 1,101 2,100 3,101 4,100 5,101 6,100 7,99 8,100 9,101 10,102 11,103 12,104 13,103 14,104 15,103 16,104 17,105 18,104 19,103 20,104 21,103 22,102 23,101 24,102 25,103 26,104 27,105 28,104 29,103 30,104 31,105 32,106 33,105 34,106 35,105 36,106 37,107 38,106 39,105 40,106 41,105 42,104 43,103 44,104 45,103 46,102 47,101 48,100 49,101 50,102 51,103 52,102 53,103 54,102 55,101 56,102 57,103 58,104 59,105 60,104 61,105 62,104 63,103 64,102 65,101 66,100 67,99 68,98 69,99 70,98 71,99 72,98 73,99 74,100 75,99 76,98 77,97 78,96 79,95 80,96 81,95 82,94 83,93 84,92 85,93 86,92 87,93 88,92 89,93 90,92 91,91 92,92 93,93 94,92 95,93 96,92 97,93 98,92 99,91 100,90 101,89 102,88 103,89 104,90 105,89 106,90 107,91 108,92 109,93 110,94 111,95 112,96 113,95 114,94 115,95 116,96 117,97 118,96 119,95 120,96 121,97 122,96 123,95 124,94 125,93 126,94 127,95 128,94 129,95 130,94 131,93 132,92 133,93 134,92 135,93 136,92 137,93 138,94 139,93 140,92 141,93 142,94 143,95 144,96 145,97 146,96 147,95 148,94 149,95 150,94 151,95 152,94 153,93 154,92 155,91 156,92 157,91 158,92 159,91 160,90 161,91 162,90 163,91 164,90 165,91 166,92 167,91 168,92 169,93 170,94 171,95 172,96 173,95 174,94 175,93 176,92 177,91 178,90 179,89 180,88 181,87 182,88 183,89 184,90 185,89 186,88 187,87 188,86 189,85 190,84 191,83 192,82 193,83 194,82 195,81 196,82 197,81 198,82 199,81 200,80 201,81 202,82 203,81 204,80 205,81 206,80 207,81 208,80 209,79 210,78 211,77 212,76 213,75 214,74 215,73 216,74 217,75 218,74 219,75 220,74 221,73 222,74 223,75 224,76 225,75 226,76 227,77 228,78 229,77 230,76 231,77 232,76 233,77 234,76 235,75 236,74 237,75 238,74 239,75 240,76 241,75 242,76 243,75 244,76 245,77 246,78 247,77 248,76 249,77 250,78 251,79 252,78 253,79 254,78 255,79 256,78 257,79 258,80 259,79 260,78 261,77 262,76 263,75 264,74 265,75 266,76 267,75 268,74 269,75 270,76 271,75 272,74 273,73 274,72 275,73 276,72 277,73 278,74 279,75 280,76 281,75 282,74 283,73 284,72 285,71 286,70 287,69 288,70 289,69 290,68 291,67 292,68 293,69 294,70 295,69 296,68 297,67 298,66 299,65 300,64 301,63 302,64 303,63 304,64 305,63 306,64 307,65 308,64 309,63 310,62 311,63 312,64 313,63 314,64 315,63 316,62 317,63 318,64 319,65 320,64 321,65 322,64 323,63 324,64 325,65 326,66 327,67 328,68 329,69 330,70 331,69 332,70 333,71 334,70 335,69 336,70 337,69 338,68 339,67 340,68 341,67 342,66 343,65 344,66 345,65 346,66 347,67 348,68 349,67 350,68 351,67 352,66 353,67 354,68 355,67 356,66 357,65 358,66 359,67 360,68 361,67 362,68 363,69 364,68 365,69 366,70 367,71 368,70 369,71 370,70 371,69 372,70 373,69 374,68 375,69 376,68 377,67 378,68 379,69 380,68 381,67 382,66 383,65 384,64 385,65 386,66 387,65 388,64 389,65 390,64 391,65 392,64 393,65 394,66 395,65 396,66 397,65 398,66 399,65 400,200 " style="fill:rgb(22,79,121);stroke:rgb(0,0,21)"></polygon><polygon points="0,200 0,100 1,101 2,100 3,101 4,102 5,103 6,104 7,105 8,106 9,105 10,104 11,103 12,104 13,105 14,106 15,107 16,108 17,107 18,106 19,107 20,108 21,109 22,110 23,109 24,110 25,109 26,110 27,111 28,112 29,111 30,112 31,113 32,114 33,113 34,112 35,113 36,114 37,115 38,116 39,115 40,116 41,117 42,116 43,115 44,116 45,117 46,118 47,119 48,118 49,119 50,118 51,119 52,120 53,121 54,120 55,121 56,120 57,119 58,118 59,119 60,118 61,119 62,120 63,119 64,120 65,119 66,120 67,119 68,118 69,119 70,118 71,117 72,116 73,115 74,114 75,115 76,114 77,113 78,112 79,111 80,110 81,109 82,110 83,111 84,112 85,111 86,110 87,111 88,112 89,111 90,112 91,111 92,110 93,111 94,112 95,113 96,112 97,111 98,112 99,111 100,110 101,109 102,110 103,109 104,108 105,109 106,110 107,109 108,108 109,109 110,108 111,109 112,108 113,109 114,108 115,109 116,110 117,109 118,108 119,109 120,110 121,111 122,112 123,113 124,112 125,111 126,112 127,111 128,112 129,113 130,112 131,111 132,112 133,113 134,112 135,111 136,112 137,113 138,114 139,115 140,116 141,115 142,116 143,115 144,114 145,115 146,114 147,115 148,114 149,113 150,112 151,113 152,114 153,115 154,116 155,115 156,114 157,115 158,114 159,115 160,116 161,117 162,116 163,117 164,118 165,117 166,118 167,117 168,116 169,117 170,118 171,119 172,120 173,121 174,122 175,123 176,124 177,125 178,126 179,127 180,128 181,129 182,128 183,127 184,128 185,129 186,130 187,129 188,130 189,131 190,132 191,133 192,134 193,135 194,136 195,137 196,138 197,137 198,136 199,137 200,138 201,139 202,138 203,137 204,136 205,137 206,138 207,139 208,138 209,139 210,140 211,139 212,138 213,137 214,138 215,139 216,140 217,141 218,142 219,141 220,142 221,141 222,140 223,139 224,140 225,141 226,140 227,139 228,140 229,141 230,140 231,141 232,142 233,143 234,144 235,143 236,142 237,141 238,140 239,141 240,142 241,143 242,144 243,145 244,144 245,143 246,142 247,141 248,140 249,141 250,140 251,139 252,138 253,137 254,136 255,135 256,136 257,137 258,138 259,139 260,138 261,139 262,138 263,139 264,140 265,141 266,142 267,141 268,140 269,139 270,138 271,139 272,138 273,137 274,138 275,137 276,138 277,137 278,138 279,139 280,140 281,139 282,140 283,139 284,138 285,139 286,140 287,141 288,142 289,141 290,140 291,139 292,138 293,137 294,136 295,135 296,136 297,135 298,136 299,137 300,136 301,137 302,138 303,139 304,138 305,139 306,138 307,137 308,138 309,139 310,138 311,137 312,136 313,137 314,136 315,135 316,136 317,137 318,138 319,139 320,138 321,139 322,138 323,137 324,138 325,137 326,138 327,137 328,138 329,139 330,140 331,141 332,142 333,143 334,142 335,141 336,140 337,139 338,140 339,141 340,142 341,143 342,142 343,141 344,142 345,141 346,142 347,143 348,144 349,143 350,142 351,141 352,142 353,141 354,140 355,139 356,140 357,141 358,140 359,141 360,142 361,141 362,140 363,139 364,138 365,137 366,138 367,139 368,138 369,139 370,138 371,139 372,138 373,137 374,136 375,135 376,136 377,137 378,138 379,137 380,138 381,139 382,138 383,139 384,138 385,137 386,136 387,135 388,134 389,133 390,134 391,133 392,132 393,131 394,132 395,133 396,134 397,135 398,136 399,135 400,200 " style="fill:rgb(175,46,96);stroke:rgb(75,0,0)"></polygon><polygon points="0,200 0,100 1,99 2,98 3,99 4,100 5,101 6,100 7,101 8,100 9,101 10,100 11,99 12,100 13,101 14,100 15,99 16,100 17,99 18,98 19,99 20,98 21,97 22,98 23,97 24,96 25,97 26,96 27,97 28,96 29,97 30,96 31,97 32,98 33,97 34,98 35,99 36,100 37,101 38,102 39,103 40,104 41,103 42,102 43,103 44,104 45,103 46,104 47,103 48,102 49,103 50,104 51,105 52,104 53,105 54,104 55,103 56,102 57,103 58,104 59,103 60,102 61,103 62,104 63,103 64,102 65,103 66,104 67,103 68,104 69,103 70,104 71,103 72,104 73,105 74,104 75,105 76,104 77,105 78,104 79,103 80,102 81,103 82,104 83,103 84,102 85,103 86,102 87,101 88,100 89,101 90,102 91,103 92,104 93,105 94,104 95,103 96,102 97,101 98,100 99,99 100,100 101,99 102,100 103,101 104,102 105,101 106,100 107,99 108,98 109,97 110,98 111,99 112,98 113,99 114,100 115,99 116,98 117,99 118,98 119,97 120,96 121,95 122,94 123,93 124,94 125,95 126,96 127,97 128,96 129,97 130,96 131,97 132,96 133,97 134,98 135,97 136,98 137,97 138,96 139,95 140,96 141,97 142,96 143,97 144,96 145,95 146,94 147,93 148,94 149,95 150,96 151,95 152,94 153,95 154,94 155,93 156,92 157,91 158,90 159,91 160,92 161,91 162,92 163,91 164,92 165,91 166,90 167,91 168,92 169,91 170,92 171,93 172,92 173,93 174,92 175,91 176,92 177,91 178,90 179,89 180,88 181,89 182,90 183,91 184,92 185,91 186,92 187,93 188,94 189,95 190,94 191,95 192,96 193,95 194,96 195,95 196,94 197,93 198,92 199,93 200,92 201,91 202,90 203,89 204,90 205,91 206,90 207,89 208,88 209,89 210,90 211,91 212,92 213,93 214,92 215,93 216,94 217,95 218,94 219,93 220,94 221,93 222,92 223,91 224,90 225,89 226,90 227,91 228,92 229,91 230,92 231,93 232,94 233,95 234,96 235,97 236,96 237,97 238,96 239,97 240,98 241,97 242,96 243,97 244,98 245,97 246,96 247,95 248,94 249,95 250,96 251,95 252,94 253,95 254,94 255,93 256,94 257,93 258,94 259,95 260,96 261,97 262,98 263,99 264,98 265,99 266,98 267,97 268,96 269,95 270,94 271,95 272,94 273,95 274,94 275,95 276,96 277,97 278,98 279,97 280,96 281,95 282,94 283,95 284,94 285,95 286,96 287,97 288,98 289,99 290,98 291,99 292,100 293,99 294,98 295,97 296,98 297,97 298,98 299,97 300,96 301,97 302,98 303,99 304,100 305,101 306,102 307,101 308,102 309,103 310,104 311,105 312,106 313,107 314,106 315,107 316,106 317,107 318,108 319,107 320,106 321,107 322,106 323,105 324,106 325,105 326,104 327,103 328,104 329,105 330,106 331,105 332,104 333,103 334,104 335,105 336,106 337,105 338,106 339,107 340,108 341,107 342,106 343,107 344,108 345,109 346,108 347,107 348,106 349,107 350,106 351,105 352,104 353,103 354,104 355,103 356,104 357,105 358,104 359,105 360,106 361,107 362,108 363,107 364,108 365,109 366,108 367,107 368,108 369,107 370,108 371,109 372,110 373,109 374,110 375,111 376,112 377,113 378,112 379,111 380,112 381,113 382,112 383,113 384,112 385,113 386,114 387,115 388,114 389,113 390,112 391,113 392,114 393,115 394,114 395,115 396,116 397,115 398,114 399,113 400,200 " style="fill:rgb(66,119,194);stroke:rgb(0,19,94)"></polygon><polygon points="0,200 0,100 1,101 2,102 3,103 4,102 5,101 6,102 7,101 8,100 9,101 10,102 11,101 12,102 13,101 14,102 15,103 16,104 17,105 18,104 19,103 20,104 21,103 22,102 23,101 24,100 25,101 26,102 27,101 28,102 29,103 30,104 31,105 32,104 33,103 34,102 35,101 36,102 37,103 38,104 39,105 40,106 41,107 42,108 43,109 44,108 45,107 46,106 47,105 48,104 49,103 50,102 51,101 52,102 53,103 54,102 55,103 56,102 57,103 58,104 59,103 60,102 61,103 62,102 63,101 64,102 65,103 66,104 67,105 68,106 69,105 70,106 71,105 72,104 73,105 74,104 75,103 76,102 77,101 78,100 79,101 80,100 81,101 82,100 83,101 84,102 85,101 86,100 87,101 88,100 89,101 90,100 91,101 92,102 93,103 94,104 95,103 96,102 97,101 98,100 99,99 100,98 101,99 102,98 103,97 104,98 105,99 106,98 107,99 108,98 109,97 110,98 111,99 112,98 113,97 114,96 115,95 116,94 117,95 118,96 119,97 120,98 121,97 122,96 123,97 124,96 125,95 126,94 127,93 128,94 129,95 130,96 131,97 132,96 133,97 134,96 135,97 136,98 137,99 138,100 139,99 140,100 141,101 142,100 143,101 144,100 145,101 146,100 147,99 148,100 149,101 150,102 151,101 152,102 153,101 154,100 155,99 156,98 157,97 158,98 159,97 160,96 161,97 162,98 163,99 164,98 165,97 166,98 167,97 168,98 169,97 170,96 171,95 172,96 173,97 174,96 175,97 176,96 177,97 178,98 179,99 180,98 181,99 182,100 183,101 184,100 185,101 186,100 187,99 188,100 189,101 190,102 191,101 192,102 193,103 194,104 195,103 196,104 197,103 198,102 199,101 200,102 201,103 202,102 203,101 204,100 205,99 206,100 207,101 208,102 209,103 210,102 211,103 212,102 213,103 214,104 215,105 216,104 217,103 218,104 219,103 220,102 221,101 222,100 223,101 224,102 225,103 226,104 227,103 228,104 229,103 230,102 231,101 232,102 233,101 234,102 235,101 236,102 237,101 238,100 239,99 240,98 241,99 242,100 243,101 244,102 245,103 246,102 247,101 248,102 249,103 250,104 251,103 252,102 253,101 254,100 255,101 256,102 257,103 258,104 259,105 260,104 261,105 262,106 263,107 264,106 265,105 266,106 267,105 268,106 269,107 270,108 271,109 272,110 273,109 274,108 275,107 276,108 277,107 278,106 279,107 280,108 281,109 282,108 283,109 284,108 285,109 286,110 287,109 288,108 289,107 290,106 291,107 292,108 293,107 294,108 295,107 296,108 297,109 298,110 299,111 300,110 301,111 302,110 303,109 304,110 305,111 306,110 307,111 308,112 309,111 310,112 311,111 312,112 313,113 314,112 315,113 316,114 317,115 318,116 319,115 320,114 321,115 322,114 323,113 324,112 325,111 326,112 327,111 328,110 329,111 330,110 331,109 332,108 333,109 334,108 335,109 336,108 337,107 338,106 339,107 340,106 341,107 342,106 343,107 344,108 345,109 346,110 347,109 348,108 349,109 350,108 351,109 352,110 353,109 354,110 355,111 356,110 357,109 358,110 359,111 360,112 361,111 362,110 363,111 364,110 365,111 366,110 367,111 368,110 369,111 370,110 371,111 372,112 373,113 374,112 375,113 376,112 377,113 378,114 379,115 380,116 381,115 382,116 383,117 384,116 385,117 386,118 387,117 388,116 389,117 390,116 391,117 392,118 393,117 394,118 395,117 396,118 397,117 398,116 399,117 400,200 " style="fill:rgb(45,124,232);stroke:rgb(0,24,132)"></polygon><polygon points="0,200 0,100 1,99 2,100 3,99 4,98 5,99 6,100 7,101 8,100 9,99 10,100 11,101 12,102 13,101 14,100 15,99 16,100 17,101 18,102 19,103 20,104 21,103 22,102 23,103 24,102 25,101 26,102 27,103 28,102 29,103 30,102 31,103 32,102 33,101 34,102 35,103 36,104 37,105 38,106 39,107 40,108 41,107 42,108 43,109 44,110 45,109 46,108 47,107 48,108 49,107 50,108 51,109 52,108 53,107 54,106 55,105 56,106 57,107 58,108 59,109 60,108 61,107 62,106 63,105 64,104 65,103 66,102 67,103 68,102 69,101 70,102 71,103 72,102 73,101 74,100 75,101 76,102 77,101 78,100 79,101 80,102 81,103 82,102 83,103 84,104 85,105 86,104 87,105 88,106 89,105 90,104 91,103 92,104 93,103 94,102 95,101 96,102 97,101 98,100 99,99 100,100 101,99 102,100 103,101 104,100 105,99 106,98 107,99 108,100 109,99 110,98 111,97 112,98 113,99 114,100 115,99 116,98 117,99 118,98 119,99 120,98 121,99 122,100 123,99 124,100 125,101 126,100 127,99 128,100 129,101 130,102 131,101 132,102 133,103 134,104 135,105 136,106 137,105 138,106 139,107 140,106 141,107 142,108 143,109 144,108 145,109 146,108 147,107 148,106 149,107 150,108 151,109 152,108 153,107 154,106 155,107 156,106 157,107 158,108 159,107 160,106 161,105 162,106 163,105 164,106 165,107 166,106 167,105 168,106 169,105 170,106 171,105 172,106 173,105 174,106 175,105 176,106 177,107 178,108 179,107 180,106 181,105 182,104 183,103 184,102 185,101 186,102 187,103 188,104 189,105 190,104 191,103 192,104 193,105 194,104 195,103 196,104 197,103 198,104 199,105 200,106 201,107 202,106 203,105 204,104 205,105 206,104 207,103 208,102 209,103 210,104 211,105 212,104 213,103 214,104 215,105 216,104 217,103 218,104 219,105 220,104 221,105 222,106 223,107 224,106 225,107 226,106 227,105 228,106 229,105 230,104 231,103 232,102 233,101 234,100 235,101 236,100 237,99 238,98 239,99 240,100 241,99 242,100 243,101 244,102 245,103 246,102 247,103 248,104 249,103 250,104 251,105 252,104 253,105 254,104 255,103 256,102 257,101 258,100 259,101 260,100 261,99 262,98 263,97 264,96 265,95 266,94 267,95 268,96 269,95 270,96 271,97 272,98 273,99 274,100 275,99 276,100 277,99 278,98 279,97 280,98 281,99 282,100 283,101 284,100 285,99 286,98 287,99 288,98 289,97 290,96 291,95 292,94 293,93 294,94 295,93 296,94 297,95 298,94 299,93 300,94 301,93 302,94 303,93 304,94 305,93 306,94 307,93 308,92 309,91 310,92 311,91 312,90 313,91 314,92 315,91 316,90 317,91 318,90 319,91 320,90 321,91 322,90 323,91 324,90 325,91 326,92 327,91 328,90 329,91 330,92 331,91 332,92 333,91 334,92 335,91 336,92 337,93 338,92 339,93 340,92 341,93 342,92 343,91 344,92 345,91 346,90 347,91 348,90 349,89 350,88 351,89 352,88 353,89 354,90 355,91 356,92 357,93 358,92 359,91 360,90 361,91 362,92 363,91 364,90 365,89 366,90 367,91 368,90 369,91 370,90 371,91 372,92 373,93 374,92 375,93 376,94 377,95 378,96 379,95 380,94 381,95 382,96 383,95 384,96 385,95 386,94 387,95 388,94 389,93 390,92 391,93 392,94 393,95 394,94 395,93 396,92 397,93 398,92 399,91 400,200 " style="fill:rgb(93,112,49);stroke:rgb(0,12,0)"></polygon><polygon points="0,200 0,100 1,101 2,102 3,103 4,104 5,103 6,104 7,105 8,106 9,107 10,108 11,109 12,110 13,111 14,112 15,111 16,110 17,111 18,112 19,113 20,112 21,111 22,112 23,113 24,114 25,115 26,114 27,115 28,116 29,117 30,118 31,119 32,118 33,119 34,120 35,121 36,120 37,121 38,122 39,121 40,122 41,121 42,122 43,121 44,120 45,121 46,122 47,121 48,122 49,121 50,120 51,121 52,122 53,123 54,122 55,121 56,120 57,119 58,120 59,121 60,122 61,121 62,122 63,123 64,122 65,121 66,122 67,123 68,122 69,123 70,124 71,125 72,126 73,127 74,126 75,125 76,126 77,125 78,126 79,127 80,128 81,129 82,128 83,127 84,126 85,127 86,128 87,127 88,126 89,127 90,128 91,127 92,126 93,125 94,124 95,125 96,126 97,125 98,126 99,127 100,126 101,127 102,128 103,129 104,128 105,129 106,130 107,131 108,132 109,131 110,130 111,131 112,132 113,133 114,134 115,133 116,134 117,135 118,134 119,135 120,136 121,135 122,136 123,135 124,134 125,133 126,132 127,131 128,130 129,131 130,130 131,129 132,130 133,131 134,130 135,131 136,130 137,129 138,128 139,129 140,130 141,129 142,130 143,129 144,130 145,129 146,130 147,131 148,130 149,131 150,130 151,131 152,132 153,131 154,132 155,131 156,132 157,133 158,132 159,133 160,132 161,133 162,134 163,135 164,136 165,137 166,136 167,137 168,138 169,137 170,138 171,139 172,140 173,141 174,140 175,141 176,140 177,139 178,140 179,139 180,138 181,137 182,138 183,139 184,140 185,139 186,138 187,137 188,138 189,139 190,140 191,139 192,140 193,141 194,140 195,139 196,138 197,137 198,138 199,139 200,140 201,139 202,140 203,141 204,140 205,139 206,138 207,139 208,138 209,139 210,140 211,139 212,138 213,137 214,138 215,137 216,138 217,139 218,140 219,139 220,138 221,137 222,138 223,137 224,138 225,137 226,138 227,137 228,136 229,137 230,136 231,135 232,134 233,135 234,136 235,135 236,136 237,135 238,134 239,133 240,134 241,135 242,134 243,135 244,134 245,133 246,132 247,131 248,130 249,131 250,130 251,131 252,130 253,131 254,130 255,129 256,130 257,129 258,130 259,129 260,130 261,129 262,128 263,127 264,126 265,125 266,126 267,127 268,126 269,125 270,126 271,125 272,126 273,125 274,124 275,125 276,126 277,127 278,126 279,127 280,128 281,127 282,128 283,127 284,126 285,125 286,126 287,127 288,126 289,127 290,128 291,127 292,128 293,129 294,130 295,131 296,130 297,129 298,128 299,127 300,128 301,129 302,128 303,127 304,126 305,127 306,128 307,129 308,128 309,127 310,128 311,129 312,128 313,129 314,130 315,131 316,132 317,131 318,132 319,131 320,130 321,129 322,130 323,129 324,130 325,131 326,132 327,133 328,132 329,131 330,130 331,131 332,130 333,131 334,130 335,129 336,128 337,127 338,128 339,127 340,128 341,127 342,126 343,125 344,126 345,125 346,126 347,125 348,126 349,125 350,124 351,123 352,124 353,123 354,124 355,123 356,124 357,125 358,124 359,123 360,122 361,123 362,124 363,125 364,124 365,125 366,126 367,127 368,126 369,127 370,126 371,125 372,124 373,123 374,124 375,123 376,124 377,123 378,124 379,123 380,122 381,121 382,120 383,121 384,120 385,121 386,120 387,121 388,122 389,123 390,122 391,121 392,122 393,123 394,124 395,123 396,122 397,123 398,122 399,121 400,200 " style="fill:rgb(248,49,182);stroke:rgb(148,0,82)"></polygon><polygon points="0,200 0,100 1,101 2,102 3,103 4,102 5,103 6,102 7,103 8,102 9,101 10,100 11,99 12,100 13,101 14,100 15,99 16,98 17,99 18,98 19,97 20,98 21,97 22,98 23,97 24,98 25,99 26,100 27,101 28,102 29,101 30,100 31,101 32,102 33,103 34,102 35,103 36,102 37,101 38,100 39,101 40,102 41,103 42,104 43,105 44,106 45,105 46,106 47,107 48,106 49,105 50,104 51,105 52,106 53,105 54,106 55,107 56,106 57,107 58,106 59,107 60,108 61,107 62,106 63,107 64,106 65,107 66,106 67,107 68,106 69,105 70,106 71,105 72,104 73,105 74,106 75,107 76,106 77,107 78,108 79,107 80,108 81,109 82,110 83,111 84,112 85,111 86,112 87,113 88,114 89,113 90,112 91,111 92,110 93,111 94,112 95,111 96,112 97,113 98,114 99,113 100,112 101,111 102,112 103,111 104,112 105,111 106,110 107,111 108,110 109,111 110,112 111,113 112,112 113,111 114,110 115,109 116,108 117,107 118,106 119,105 120,104 121,103 122,102 123,101 124,102 125,101 126,102 127,101 128,100 129,99 130,98 131,97 132,98 133,99 134,98 135,97 136,96 137,97 138,96 139,95 140,96 141,97 142,98 143,99 144,98 145,97 146,98 147,97 148,98 149,97 150,98 151,97 152,96 153,97 154,96 155,97 156,96 157,97 158,98 159,99 160,100 161,101 162,102 163,103 164,102 165,101 166,102 167,101 168,100 169,101 170,100 171,99 172,98 173,99 174,100 175,101 176,102 177,101 178,100 179,99 180,98 181,99 182,100 183,101 184,102 185,103 186,102 187,103 188,104 189,103 190,102 191,101 192,102 193,101 194,100 195,101 196,100 197,99 198,100 199,101 200,102 201,101 202,102 203,103 204,104 205,105 206,106 207,107 208,108 209,107 210,108 211,109 212,110 213,109 214,108 215,109 216,110 217,109 218,110 219,111 220,110 221,111 222,110 223,111 224,112 225,113 226,112 227,111 228,112 229,111 230,112 231,111 232,112 233,111 234,110 235,109 236,110 237,109 238,108 239,109 240,110 241,109 242,110 243,111 244,112 245,113 246,112 247,113 248,112 249,113 250,112 251,113 252,112 253,113 254,114 255,115 256,116 257,115 258,114 259,113 260,114 261,115 262,114 263,115 264,114 265,113 266,114 267,113 268,114 269,115 270,116 271,115 272,114 273,115 274,116 275,115 276,116 277,117 278,116 279,117 280,116 281,115 282,116 283,115 284,114 285,115 286,114 287,115 288,114 289,113 290,112 291,111 292,112 293,113 294,114 295,113 296,112 297,113 298,112 299,113 300,114 301,113 302,112 303,113 304,112 305,111 306,112 307,111 308,112 309,111 310,110 311,111 312,112 313,111 314,110 315,109 316,108 317,109 318,108 319,109 320,110 321,109 322,108 323,109 324,110 325,109 326,110 327,109 328,110 329,111 330,112 331,113 332,114 333,115 334,114 335,113 336,114 337,115 338,114 339,115 340,116 341,115 342,116 343,115 344,114 345,115 346,114 347,115 348,116 349,115 350,116 351,117 352,116 353,117 354,118 355,119 356,118 357,119 358,118 359,117 360,116 361,115 362,116 363,117 364,116 365,117 366,116 367,117 368,116 369,117 370,118 371,119 372,118 373,119 374,118 375,119 376,120 377,121 378,122 379,123 380,124 381,125 382,126 383,125 384,126 385,127 386,126 387,125 388,126 389,127 390,128 391,127 392,126 393,127 394,128 395,127 396,128 397,129 398,128 399,129 400,200 " style="fill:rgb(222,129,185);stroke:rgb(122,29,85)"></polygon><polygon points="0,200 0,100 1,101 2,100 3,99 4,100 5,101 6,100 7,99 8,98 9,99 10,98 11,97 12,96 13,97 14,98 15,97 16,96 17,95 18,94 19,95 20,94 21,95 22,94 23,93 24,94 25,93 26,94 27,95 28,94 29,95 30,96 31,95 32,94 33,93 34,92 35,91 36,90 37,89 38,88 39,87 40,88 41,87 42,88 43,87 44,88 45,87 46,86 47,87 48,86 49,87 50,88 51,89 52,88 53,87 54,88 55,89 56,90 57,89 58,90 59,91 60,90 61,91 62,92 63,91 64,92 65,91 66,92 67,91 68,92 69,91 70,90 71,91 72,92 73,91 74,92 75,91 76,90 77,89 78,88 79,87 80,86 81,87 82,86 83,87 84,86 85,85 86,84 87,85 88,84 89,85 90,84 91,85 92,86 93,85 94,84 95,85 96,84 97,85 98,86 99,85 100,84 101,85 102,84 103,85 104,84 105,85 106,84 107,83 108,82 109,81 110,80 111,79 112,78 113,79 114,80 115,81 116,80 117,81 118,80 119,81 120,82 121,81 122,80 123,79 124,80 125,79 126,80 127,81 128,82 129,83 130,82 131,83 132,84 133,83 134,84 135,85 136,84 137,83 138,82 139,83 140,82 141,81 142,80 143,79 144,80 145,81 146,80 147,79 148,78 149,77 150,78 151,79 152,78 153,79 154,80 155,79 156,78 157,79 158,78 159,79 160,80 161,79 162,78 163,79 164,78 165,77 166,78 167,79 168,80 169,81 170,80 171,79 172,78 173,77 174,76 175,77 176,76 177,77 178,76 179,77 180,78 181,77 182,78 183,79 184,78 185,79 186,78 187,79 188,78 189,79 190,78 191,77 192,78 193,77 194,78 195,77 196,76 197,77 198,76 199,77 200,78 201,79 202,78 203,79 204,78 205,79 206,80 207,81 208,82 209,81 210,80 211,79 212,78 213,77 214,78 215,77 216,78 217,79 218,78 219,77 220,78 221,77 222,78 223,77 224,78 225,79 226,78 227,79 228,78 229,79 230,78 231,77 232,76 233,77 234,78 235,77 236,76 237,75 238,76 239,75 240,74 241,75 242,74 243,75 244,76 245,75 246,74 247,75 248,76 249,77 250,78 251,77 252,78 253,79 254,80 255,81 256,80 257,79 258,80 259,81 260,80 261,81 262,82 263,83 264,84 265,85 266,84 267,85 268,86 269,87 270,86 271,87 272,86 273,85 274,84 275,85 276,84 277,83 278,82 279,81 280,82 281,83 282,84 283,85 284,86 285,85 286,86 287,87 288,86 289,87 290,86 291,87 292,88 293,89 294,90 295,89 296,88 297,89 298,90 299,91 300,90 301,89 302,88 303,87 304,86 305,85 306,86 307,85 308,84 309,83 310,84 311,85 312,84 313,85 314,86 315,87 316,88 317,87 318,86 319,85 320,86 321,87 322,86 323,85 324,84 325,83 326,84 327,83 328,82 329,81 330,80 331,81 332,80 333,79 334,80 335,79 336,78 337,79 338,80 339,81 340,80 341,81 342,80 343,81 344,80 345,79 346,78 347,79 348,80 349,79 350,78 351,77 352,78 353,79 354,78 355,79 356,80 357,81 358,82 359,81 360,82 361,83 362,84 363,83 364,84 365,83 366,84 367,83 368,82 369,83 370,84 371,85 372,84 373,83 374,82 375,83 376,84 377,85 378,86 379,85 380,84 381,83 382,84 383,83 384,82 385,83 386,82 387,83 388,82 389,81 390,80 391,79 392,80 393,79 394,80 395,79 396,80 397,79 398,80 399,79 400,200 " style="fill:rgb(230,91,64);stroke:rgb(130,0,0)"></polygon><polygon points="0,200 0,100 1,101 2,102 3,101 4,100 5,101 6,100 7,101 8,100 9,101 10,100 11,99 12,100 13,101 14,100 15,101 16,102 17,101 18,100 19,99 20,100 21,101 22,102 23,103 24,104 25,103 26,102 27,103 28,102 29,103 30,102 31,103 32,104 33,105 34,106 35,105 36,104 37,105 38,106 39,105 40,104 41,103 42,102 43,101 44,100 45,99 46,100 47,101 48,102 49,103 50,102 51,101 52,102 53,103 54,102 55,103 56,104 57,103 58,102 59,101 60,102 61,103 62,104 63,103 64,102 65,103 66,102 67,103 68,104 69,103 70,102 71,103 72,104 73,103 74,104 75,103 76,104 77,105 78,104 79,105 80,106 81,107 82,108 83,109 84,110 85,109 86,110 87,109 88,108 89,109 90,110 91,109 92,108 93,109 94,110 95,111 96,110 97,109 98,108 99,109 100,110 101,109 102,108 103,109 104,108 105,107 106,106 107,105 108,104 109,103 110,104 111,105 112,106 113,105 114,104 115,103 116,104 117,105 118,106 119,107 120,108 121,107 122,106 123,107 124,108 125,107 126,106 127,105 128,104 129,103 130,102 131,103 132,102 133,101 134,102 135,103 136,104 137,103 138,104 139,105 140,106 141,107 142,108 143,107 144,108 145,107 146,108 147,109 148,110 149,109 150,108 151,107 152,108 153,109 154,108 155,109 156,108 157,107 158,106 159,105 160,106 161,107 162,108 163,107 164,106 165,105 166,106 167,107 168,108 169,107 170,106 171,105 172,104 173,105 174,106 175,105 176,104 177,103 178,104 179,105 180,104 181,105 182,104 183,105 184,104 185,105 186,106 187,107 188,106 189,107 190,106 191,105 192,104 193,103 194,104 195,103 196,104 197,103 198,104 199,103 200,104 201,105 202,104 203,105 204,104 205,105 206,106 207,107 208,108 209,107 210,106 211,107 212,108 213,109 214,110 215,111 216,110 217,111 218,112 219,111 220,110 221,109 222,108 223,107 224,108 225,107 226,106 227,107 228,106 229,107 230,106 231,105 232,106 233,105 234,104 235,105 236,104 237,105 238,104 239,105 240,104 241,105 242,104 243,105 244,104 245,103 246,104 247,103 248,102 249,103 250,104 251,103 252,102 253,101 254,102 255,101 256,100 257,101 258,100 259,99 260,100 261,99 262,98 263,99 264,100 265,101 266,100 267,99 268,100 269,99 270,98 271,97 272,98 273,99 274,100 275,101 276,102 277,101 278,100 279,99 280,100 281,101 282,102 283,103 284,102 285,103 286,102 287,103 288,104 289,105 290,106 291,105 292,106 293,107 294,108 295,107 296,106 297,107 298,106 299,105 300,106 301,105 302,106 303,105 304,106 305,105 306,106 307,107 308,108 309,109 310,110 311,111 312,112 313,111 314,110 315,109 316,110 317,111 318,112 319,111 320,112 321,113 322,114 323,115 324,114 325,113 326,112 327,111 328,110 329,109 330,110 331,109 332,108 333,109 334,110 335,109 336,108 337,107 338,106 339,105 340,106 341,107 342,106 343,107 344,106 345,105 346,106 347,107 348,106 349,107 350,106 351,107 352,108 353,107 354,106 355,107 356,106 357,105 358,104 359,105 360,106 361,105 362,104 363,105 364,106 365,107 366,106 367,105 368,106 369,107 370,108 371,109 372,110 373,109 374,108 375,107 376,108 377,109 378,108 379,109 380,110 381,111 382,110 383,109 384,110 385,109 386,110 387,111 388,112 389,111 390,112 391,113 392,114 393,113 394,114 395,113 396,112 397,111 398,110 399,111 400,200 " style="fill:rgb(160,218,39);stroke:rgb(60,118,0)"></polygon></svg>